<svg xmlns="http://www.w3.org/2000/svg" width="23" height="23" viewBox="0 0 23 23"><g id="shipping-icon" transform="translate(0 -89)"><g id="menu-icon-orders" transform="translate(0 79)"><rect id="Rectangle_94" data-name="Rectangle 94" width="23" height="23" transform="translate(0 10)" fill="#f2f2f2" opacity="0"></rect><path id="noun-delivery-box-3334439" d="M127.026,46.663a.519.519,0,0,0-.2.037l-9.835,4.143h0a.518.518,0,0,0-.313.548V62.71a.518.518,0,0,0,.313.477l9.835,4.143.011,0,.005,0,.046.015.037.009h0l.037.006.013,0h.078l.037,0h.005l.041-.007h.005l.037-.01h0l.042-.016h0l9.834-4.142h0a.518.518,0,0,0,.317-.477V51.36a.518.518,0,0,0-.317-.517l-4.733-1.994a.519.519,0,0,0-.1-.042l-5-2.106a.522.522,0,0,0-.2-.037Zm0,1.077,3.712,1.565-8.5,3.58-3.71-1.563Zm5.047,2.128,3.45,1.454-8.5,3.58-3.453-1.454ZM117.706,52.1l8.8,3.707V66.074l-8.8-3.707Zm18.636,0V62.367l-8.8,3.707V55.808l3.152-1.328Zm-17.021,6.571a.5.5,0,0,0-.056,0,.518.518,0,0,0-.145,1l1.952.822a.518.518,0,1,0,.4-.955l-1.952-.822a.518.518,0,0,0-.2-.044Zm0,2.071a.5.5,0,0,0-.056,0,.518.518,0,0,0-.145,1l1.952.821a.518.518,0,1,0,.4-.955l-1.952-.821a.515.515,0,0,0-.2-.045Z" transform="translate(-115.67 -35.682)" fill="rgba(0,0,0,0.75)"></path></g></g></svg>