<svg xmlns="http://www.w3.org/2000/svg" width="23" height="23" viewBox="0 0 23 23"><g id="credit-card-icon" transform="translate(-0.001 -10.492)"><rect id="Rectangle_94" data-name="Rectangle 94" width="23" height="23" transform="translate(0.001 10.492)" fill="#f2f2f2" opacity="0"></rect><g id="noun-credit-cart-1972599" transform="translate(-103.101 -97.509)"><path id="Path_426" data-name="Path 426" d="M105.351,112a1.757,1.757,0,0,0-1.75,1.75v11.5a1.757,1.757,0,0,0,1.75,1.75h4.5a.5.5,0,1,0,0-1h-4.5a.738.738,0,0,1-.75-.75v-9.5h20v9.5a.738.738,0,0,1-.75.75h-12a.5.5,0,1,0,0,1h12a1.757,1.757,0,0,0,1.75-1.75v-11.5a1.757,1.757,0,0,0-1.75-1.75Zm0,1h18.5a.738.738,0,0,1,.75.75v1h-20v-1a.738.738,0,0,1,.75-.75Zm1.2,4.25a.5.5,0,1,0,.047,1h2.5a.5.5,0,1,0,0-1h-2.547Zm4.75,0a.5.5,0,1,0,.047,1h4.5a.5.5,0,1,0,0-1H111.3Zm8.8,4a1.75,1.75,0,1,0,0,3.5,1.693,1.693,0,0,0,.75-.2,1.691,1.691,0,0,0,.75.2,1.75,1.75,0,0,0,0-3.5,1.683,1.683,0,0,0-.75.2A1.683,1.683,0,0,0,120.1,121.25Zm0,1a.711.711,0,0,1,.445.156.515.515,0,0,0,.609,0,.711.711,0,0,1,.445-.156.75.75,0,1,1,0,1.5.711.711,0,0,1-.445-.156.515.515,0,0,0-.609,0,.711.711,0,0,1-.445.156.75.75,0,0,1,0-1.5Z" transform="translate(0)" fill="rgba(0,0,0,0.75)"></path></g></g></svg>