<svg id="label-guarantie-icon" xmlns="http://www.w3.org/2000/svg" width="13" height="24" viewBox="0 0 13 24"><path id="Path_1" data-name="Path 1" d="M12.88,14.882l-2.733-2.744a.549.549,0,0,1,0-.776l.467-.465a.55.55,0,0,1,.777,0l1.879,1.886,5.1-5.1a.547.547,0,0,1,.776,0l.466.465a.548.548,0,0,1,0,.776l-5.955,5.956A.548.548,0,0,1,12.88,14.882Z" transform="translate(-6.849 0.529)" fill="#fff"></path><rect id="Rectangle_240" data-name="Rectangle 240" width="13" height="24" transform="translate(0)" fill="#fff" opacity="0"></rect><path id="Path_2" data-name="Path 2" d="M15.838,9.7c-.531,2.318-1.8,4.389-4.778,6.578a.327.327,0,0,1-.363,0C6.175,12.963,5.6,9.92,5.546,5.868a.3.3,0,0,1,.215-.276A17.764,17.764,0,0,0,10.69,3.476a.391.391,0,0,1,.378,0,18.455,18.455,0,0,0,3.367,1.633.386.386,0,0,0,.369-.083l.659-.659a.124.124,0,0,0-.056-.225,16.964,16.964,0,0,1-4.17-2.027.616.616,0,0,0-.717,0,16.442,16.442,0,0,1-5.71,2.426.615.615,0,0,0-.5.6c0,4.659.458,8.539,6.218,12.526a.615.615,0,0,0,.7,0c4.428-3.065,5.718-6.068,6.08-9.409.013-.123-.048-.152-.135-.064L16.045,9.326A.908.908,0,0,0,15.838,9.7Z" transform="translate(-4.311 3)" fill="#fff"></path></svg>