<svg xmlns="http://www.w3.org/2000/svg" width="13" height="14" viewBox="0 0 13.003 14"><g id="icon-home-dark" opacity="0.3"><path id="Path_346" data-name="Path 346" d="M281.688,386.482a1.232,1.232,0,0,1,.358.867l-.018,2.483h-3.273l.018-2.483a1.218,1.218,0,0,1,.358-.867,1.232,1.232,0,0,1,.867-.358h.82A1.232,1.232,0,0,1,281.688,386.482Z" transform="translate(-273.89 -375.832)" fill="rgba(0,0,0,0.75)" fill-rule="evenodd"></path><path id="Path_347" data-name="Path 347" d="M131.852,35.906v7.237a2,2,0,0,1-2,2h-1.5V42.635a2.511,2.511,0,0,0-2.5-2.5h-1a2.512,2.512,0,0,0-2.5,2.5v2.507h-1.5a2,2,0,0,1-2-2V35.906a2,2,0,0,1,.954-1.7l4.5-2.765a2,2,0,0,1,2.1,0l4.5,2.765a1.991,1.991,0,0,1,.954,1.7Z" transform="translate(-118.849 -31.142)" fill="rgba(0,0,0,0.75)" fill-rule="evenodd"></path></g></svg>