<svg id="like-button-icon" xmlns="http://www.w3.org/2000/svg" width="48" height="48" viewBox="0 0 48 48"><g id="Group_897" data-name="Group 897" transform="translate(-184 371) rotate(-90)"><circle id="Ellipse_86" data-name="Ellipse 86" cx="24" cy="24" r="24" transform="translate(323 184)" fill="rgba(0,0,0,0.05)"></circle><g id="menu-icon-like" transform="translate(371 184) rotate(90)"><rect id="Rectangle_94" data-name="Rectangle 94" width="48" height="48" fill="#f2f2f2" opacity="0"></rect><path id="Path_251" data-name="Path 251" d="M11.229,19.914C8.2,16.059,2.9,13.807.855,9.881-2.651,3.155,5.383-3.649,11.229,2.254c5.846-5.9,13.879.9,10.374,7.627C19.554,13.807,14.26,16.059,11.229,19.914Zm0-1.561c2.954-3.116,7.753-5.66,9.466-8.945,2.981-5.716-3.734-11.485-8.737-6.433l-.728.735L10.5,2.975c-5-5.053-11.718.717-8.738,6.433,1.713,3.285,6.512,5.829,9.466,8.945Z" transform="translate(12.771 15.171)" fill="rgba(0,0,0,0.75)"></path></g></g></svg>